<mxfile host="app.diagrams.net" agent="Mozilla/5.0 (X11; Linux x86_64) AppleWebKit/537.36 (KHTML, like Gecko) Chrome/137.0.0.0 Safari/537.36" version="27.1.6">
  <diagram name="Page-1" id="ljue0wGgbwRRnVwrXdln">
    <mxGraphModel dx="1426" dy="765" grid="1" gridSize="10" guides="1" tooltips="1" connect="1" arrows="1" fold="1" page="1" pageScale="1" pageWidth="827" pageHeight="1169" math="0" shadow="0">
      <root>
        <mxCell id="0" />
        <mxCell id="1" parent="0" />
        <mxCell id="gp8xLzvwy46ko2uWhPzu-49" style="edgeStyle=orthogonalEdgeStyle;rounded=0;orthogonalLoop=1;jettySize=auto;html=1;" edge="1" parent="1" source="gp8xLzvwy46ko2uWhPzu-43" target="gp8xLzvwy46ko2uWhPzu-44">
          <mxGeometry relative="1" as="geometry" />
        </mxCell>
        <mxCell id="gp8xLzvwy46ko2uWhPzu-54" value="dropout 50%" style="edgeLabel;html=1;align=center;verticalAlign=middle;resizable=0;points=[];" vertex="1" connectable="0" parent="gp8xLzvwy46ko2uWhPzu-49">
          <mxGeometry x="-0.5829" relative="1" as="geometry">
            <mxPoint y="-2" as="offset" />
          </mxGeometry>
        </mxCell>
        <mxCell id="gp8xLzvwy46ko2uWhPzu-43" value="ResNet output&lt;div&gt;1x2048&lt;/div&gt;" style="rounded=1;whiteSpace=wrap;html=1;fillColor=#1ba1e2;fontColor=#ffffff;strokeColor=#006EAF;" vertex="1" parent="1">
          <mxGeometry x="490" y="390" width="120" height="60" as="geometry" />
        </mxCell>
        <mxCell id="gp8xLzvwy46ko2uWhPzu-50" style="edgeStyle=orthogonalEdgeStyle;rounded=0;orthogonalLoop=1;jettySize=auto;html=1;" edge="1" parent="1" source="gp8xLzvwy46ko2uWhPzu-44" target="gp8xLzvwy46ko2uWhPzu-45">
          <mxGeometry relative="1" as="geometry" />
        </mxCell>
        <mxCell id="gp8xLzvwy46ko2uWhPzu-55" value="dropout 20%" style="edgeLabel;html=1;align=center;verticalAlign=middle;resizable=0;points=[];" vertex="1" connectable="0" parent="gp8xLzvwy46ko2uWhPzu-50">
          <mxGeometry x="-0.64" relative="1" as="geometry">
            <mxPoint as="offset" />
          </mxGeometry>
        </mxCell>
        <mxCell id="gp8xLzvwy46ko2uWhPzu-44" value="fc&lt;div&gt;1x1024&lt;/div&gt;" style="rounded=1;whiteSpace=wrap;html=1;fillColor=#008a00;fontColor=#ffffff;strokeColor=#005700;" vertex="1" parent="1">
          <mxGeometry x="490" y="480" width="120" height="60" as="geometry" />
        </mxCell>
        <mxCell id="gp8xLzvwy46ko2uWhPzu-51" style="edgeStyle=orthogonalEdgeStyle;rounded=0;orthogonalLoop=1;jettySize=auto;html=1;" edge="1" parent="1" source="gp8xLzvwy46ko2uWhPzu-45" target="gp8xLzvwy46ko2uWhPzu-46">
          <mxGeometry relative="1" as="geometry" />
        </mxCell>
        <mxCell id="gp8xLzvwy46ko2uWhPzu-56" value="dropout 20%" style="edgeLabel;html=1;align=center;verticalAlign=middle;resizable=0;points=[];" vertex="1" connectable="0" parent="gp8xLzvwy46ko2uWhPzu-51">
          <mxGeometry x="0.0937" y="-1" relative="1" as="geometry">
            <mxPoint x="-1" y="-4" as="offset" />
          </mxGeometry>
        </mxCell>
        <mxCell id="gp8xLzvwy46ko2uWhPzu-45" value="fc&lt;div&gt;1x512&lt;/div&gt;" style="rounded=1;whiteSpace=wrap;html=1;fillColor=#008a00;fontColor=#ffffff;strokeColor=#005700;" vertex="1" parent="1">
          <mxGeometry x="490" y="570" width="120" height="60" as="geometry" />
        </mxCell>
        <mxCell id="gp8xLzvwy46ko2uWhPzu-52" style="edgeStyle=orthogonalEdgeStyle;rounded=0;orthogonalLoop=1;jettySize=auto;html=1;" edge="1" parent="1" source="gp8xLzvwy46ko2uWhPzu-46" target="gp8xLzvwy46ko2uWhPzu-47">
          <mxGeometry relative="1" as="geometry" />
        </mxCell>
        <mxCell id="gp8xLzvwy46ko2uWhPzu-57" value="dropout 20%" style="edgeLabel;html=1;align=center;verticalAlign=middle;resizable=0;points=[];" vertex="1" connectable="0" parent="gp8xLzvwy46ko2uWhPzu-52">
          <mxGeometry x="0.2743" y="1" relative="1" as="geometry">
            <mxPoint x="-1" y="-3" as="offset" />
          </mxGeometry>
        </mxCell>
        <mxCell id="gp8xLzvwy46ko2uWhPzu-46" value="fc&lt;div&gt;1x256&lt;/div&gt;" style="rounded=1;whiteSpace=wrap;html=1;fillColor=#008a00;fontColor=#ffffff;strokeColor=#005700;" vertex="1" parent="1">
          <mxGeometry x="490" y="660" width="120" height="60" as="geometry" />
        </mxCell>
        <mxCell id="gp8xLzvwy46ko2uWhPzu-53" style="edgeStyle=orthogonalEdgeStyle;rounded=0;orthogonalLoop=1;jettySize=auto;html=1;" edge="1" parent="1" source="gp8xLzvwy46ko2uWhPzu-47" target="gp8xLzvwy46ko2uWhPzu-48">
          <mxGeometry relative="1" as="geometry" />
        </mxCell>
        <mxCell id="gp8xLzvwy46ko2uWhPzu-58" value="dropout 20%" style="edgeLabel;html=1;align=center;verticalAlign=middle;resizable=0;points=[];" vertex="1" connectable="0" parent="gp8xLzvwy46ko2uWhPzu-53">
          <mxGeometry x="-0.6514" relative="1" as="geometry">
            <mxPoint as="offset" />
          </mxGeometry>
        </mxCell>
        <mxCell id="gp8xLzvwy46ko2uWhPzu-47" value="fc&lt;div&gt;1x128&lt;/div&gt;" style="rounded=1;whiteSpace=wrap;html=1;fillColor=#008a00;fontColor=#ffffff;strokeColor=#005700;" vertex="1" parent="1">
          <mxGeometry x="490" y="750" width="120" height="60" as="geometry" />
        </mxCell>
        <mxCell id="gp8xLzvwy46ko2uWhPzu-48" value="fc&lt;div&gt;1xnum_classes&lt;/div&gt;" style="rounded=1;whiteSpace=wrap;html=1;fillColor=#a20025;fontColor=#ffffff;strokeColor=#6F0000;" vertex="1" parent="1">
          <mxGeometry x="490" y="840" width="120" height="60" as="geometry" />
        </mxCell>
        <mxCell id="gp8xLzvwy46ko2uWhPzu-61" style="edgeStyle=orthogonalEdgeStyle;rounded=0;orthogonalLoop=1;jettySize=auto;html=1;" edge="1" parent="1" source="gp8xLzvwy46ko2uWhPzu-59" target="gp8xLzvwy46ko2uWhPzu-60">
          <mxGeometry relative="1" as="geometry" />
        </mxCell>
        <mxCell id="gp8xLzvwy46ko2uWhPzu-59" value="ResNet output&lt;div&gt;1x2048&lt;/div&gt;" style="rounded=1;whiteSpace=wrap;html=1;fillColor=#1ba1e2;fontColor=#ffffff;strokeColor=#006EAF;" vertex="1" parent="1">
          <mxGeometry x="294" y="390" width="120" height="60" as="geometry" />
        </mxCell>
        <mxCell id="gp8xLzvwy46ko2uWhPzu-60" value="fc&lt;div&gt;1x1000&lt;/div&gt;" style="rounded=1;whiteSpace=wrap;html=1;fillColor=#a20025;fontColor=#ffffff;strokeColor=#6F0000;" vertex="1" parent="1">
          <mxGeometry x="294" y="480" width="120" height="60" as="geometry" />
        </mxCell>
        <mxCell id="gp8xLzvwy46ko2uWhPzu-63" value="Original" style="text;html=1;align=center;verticalAlign=middle;resizable=0;points=[];autosize=1;strokeColor=none;fillColor=none;" vertex="1" parent="1">
          <mxGeometry x="319" y="350" width="70" height="30" as="geometry" />
        </mxCell>
        <mxCell id="gp8xLzvwy46ko2uWhPzu-64" value="Ours" style="text;html=1;align=center;verticalAlign=middle;resizable=0;points=[];autosize=1;strokeColor=none;fillColor=none;" vertex="1" parent="1">
          <mxGeometry x="525" y="350" width="50" height="30" as="geometry" />
        </mxCell>
      </root>
    </mxGraphModel>
  </diagram>
</mxfile>
